<?xml version="1.0" standalone="no"?>
<!DOCTYPE svg PUBLIC "-//W3C//DTD SVG 20010904//EN"
 "http://www.w3.org/TR/2001/REC-SVG-20010904/DTD/svg10.dtd">
<svg version="1.0" xmlns="http://www.w3.org/2000/svg"
 width="1472.000000pt" height="1472.000000pt" viewBox="0 0 1472.000000 1472.000000"
 preserveAspectRatio="xMidYMid meet">
<metadata>
Created by potrace 1.11, written by Peter Selinger 2001-2013
</metadata>
<g transform="translate(0.000000,1472.000000) scale(0.100000,-0.100000)"
fill="#000000" stroke="none">
<path d="M2162 13079 l3 -1042 160 -73 c88 -40 194 -89 235 -108 41 -19 111
-51 155 -71 44 -20 132 -61 195 -90 63 -30 318 -147 565 -261 248 -113 484
-222 525 -241 163 -75 448 -207 500 -230 30 -14 106 -50 169 -79 62 -30 114
-54 116 -54 3 0 203 -92 370 -171 33 -15 121 -56 195 -90 224 -102 262 -120
340 -156 41 -20 185 -86 320 -148 135 -62 281 -130 325 -150 44 -21 254 -118
467 -216 l387 -179 78 34 c43 18 104 45 136 60 31 14 85 38 120 52 62 26 106
45 207 91 30 14 100 44 155 68 55 23 156 68 225 98 69 30 215 94 325 142 110
48 228 100 263 116 35 16 65 29 67 29 3 0 557 240 612 265 17 8 34 15 37 15 3
0 33 13 68 29 75 35 199 89 285 125 35 14 86 37 115 50 29 13 82 36 118 51 36
14 79 32 95 40 39 17 141 63 180 80 17 7 190 81 385 165 195 84 379 163 408
176 29 13 55 24 58 24 3 0 30 11 60 25 30 14 82 37 117 51 34 14 80 34 102 44
22 10 175 75 340 145 165 69 309 130 320 135 86 38 122 53 210 90 55 23 118
50 140 60 22 9 56 23 76 30 76 27 69 -82 67 1072 l-3 1035 -65 -31 c-68 -33
-434 -202 -630 -291 -63 -29 -155 -71 -203 -94 -49 -22 -90 -41 -92 -41 -3 0
-46 -20 -97 -44 -51 -24 -120 -56 -153 -71 -71 -32 -1025 -466 -1105 -502 -30
-14 -219 -99 -420 -190 -201 -91 -387 -175 -415 -188 -108 -49 -159 -72 -720
-324 -319 -144 -593 -268 -610 -276 -92 -41 -168 -76 -445 -200 -168 -75 -329
-148 -357 -161 l-53 -24 -152 74 c-84 40 -243 117 -353 171 -110 54 -263 128
-340 165 -77 37 -239 116 -360 175 -121 59 -287 140 -370 180 -82 40 -226 110
-320 155 -93 45 -237 115 -320 155 -82 40 -253 123 -380 185 -126 62 -275 134
-330 160 -55 26 -190 91 -300 145 -110 54 -258 126 -330 160 -71 35 -215 104
-320 155 -104 51 -253 123 -330 160 -77 37 -239 116 -360 175 -121 59 -254
123 -295 142 -41 19 -96 46 -123 59 l-47 24 2 -1041z"/>
<path d="M12530 10950 c-16 -10 -53 -26 -190 -83 -166 -68 -835 -349 -865
-362 -16 -7 -53 -23 -81 -34 -46 -18 -78 -31 -179 -76 -16 -7 -70 -29 -120
-50 -49 -20 -103 -42 -120 -50 -16 -7 -70 -30 -120 -50 -49 -20 -175 -73 -280
-117 -334 -141 -413 -174 -770 -323 -192 -81 -363 -152 -380 -160 -16 -7 -113
-48 -215 -90 -102 -42 -204 -85 -227 -96 -24 -10 -45 -19 -48 -19 -3 0 -24 -9
-48 -19 -23 -11 -181 -78 -352 -149 -601 -251 -803 -336 -1120 -469 -176 -74
-342 -144 -369 -155 -45 -17 -111 -46 -161 -68 -11 -5 -87 -37 -170 -71 -144
-58 -175 -72 -247 -103 -18 -8 -73 -31 -123 -51 -49 -20 -103 -43 -120 -50
-16 -8 -194 -82 -395 -165 -201 -83 -401 -167 -445 -186 -44 -20 -91 -41 -105
-46 -14 -6 -38 -17 -55 -24 -16 -7 -68 -29 -115 -48 -47 -19 -103 -43 -125
-52 -22 -10 -42 -18 -45 -19 -6 -1 -292 -121 -347 -146 -24 -10 -45 -19 -48
-19 -3 0 -24 -9 -48 -19 -23 -11 -90 -40 -149 -64 l-108 -45 0 151 c0 84 0
634 0 1224 l0 1072 -23 6 c-60 18 -635 274 -1317 587 -36 17 -90 41 -120 55
-30 14 -82 37 -115 53 -33 15 -123 56 -200 90 -77 34 -154 68 -170 75 -58 26
-127 55 -131 55 -2 0 -4 -1422 -4 -3159 l0 -3160 38 16 c77 32 580 246 652
278 41 18 273 117 515 220 729 310 1608 685 1640 699 17 8 107 46 200 86 94
40 188 80 210 90 22 10 96 41 165 70 69 29 143 60 165 70 22 10 180 77 350
150 171 72 329 141 353 152 29 13 47 16 55 9 7 -5 44 -56 82 -113 39 -57 74
-107 78 -113 8 -9 569 -820 851 -1229 23 -32 48 -68 56 -80 8 -11 52 -75 98
-141 45 -66 88 -129 96 -140 12 -16 528 -761 786 -1135 29 -41 91 -131 139
-200 48 -69 118 -170 156 -225 38 -55 72 -102 77 -103 4 -2 8 -8 8 -14 0 -6
22 -40 48 -77 27 -36 109 -154 183 -261 74 -107 157 -229 186 -270 29 -41 87
-124 128 -185 42 -60 112 -162 156 -225 44 -63 106 -153 138 -200 80 -117 448
-647 516 -744 30 -43 55 -85 55 -92 0 -12 177 -14 1100 -14 l1100 0 0 204 0
204 -46 83 c-41 74 -97 159 -344 523 -42 61 -141 208 -222 326 -80 118 -231
340 -334 492 -104 153 -241 354 -304 448 -63 95 -120 177 -125 183 -6 7 -64
92 -130 190 -66 98 -151 225 -190 281 -38 57 -128 188 -198 292 -71 104 -200
295 -288 424 -88 129 -203 298 -255 375 -154 226 -339 499 -449 660 -56 83
-141 209 -190 280 -49 72 -136 200 -194 285 -58 85 -135 198 -171 251 -75 111
-280 413 -390 575 -41 60 -109 159 -150 220 -41 60 -76 112 -78 115 -2 5 398
180 748 326 19 8 53 23 75 34 22 10 175 75 340 145 165 70 323 137 352 150 28
13 54 24 57 24 3 0 40 16 82 35 41 19 77 35 79 35 3 0 28 11 57 24 29 13 64
27 78 31 14 4 30 11 35 15 6 4 51 24 100 45 50 20 108 45 130 55 22 10 85 37
140 60 156 66 1336 569 1370 585 17 7 71 30 120 50 50 20 108 45 130 55 72 33
139 62 162 71 l23 9 0 1000 c0 550 -3 1000 -7 999 -5 0 -15 -4 -23 -9z"/>
<path d="M11448 7463 l-1118 -546 0 -490 0 -489 1121 -1704 c617 -937 1123
-1704 1125 -1704 2 0 4 1233 4 2740 0 1507 -3 2740 -7 2740 -5 0 -511 -246
-1125 -547z"/>
<path d="M4210 4507 c-31 -13 -105 -45 -145 -62 -95 -42 -137 -60 -195 -85
-83 -35 -273 -117 -325 -140 -22 -10 -105 -46 -185 -80 -80 -34 -169 -73 -198
-86 -29 -13 -55 -24 -58 -24 -3 0 -29 -11 -59 -24 -29 -14 -228 -100 -442
-192 -213 -91 -391 -169 -395 -173 -7 -6 -10 -147 -23 -1061 -2 -179 -7 -496
-10 -705 -3 -209 -8 -536 -10 -727 l-5 -348 3521 0 3520 0 -54 73 c-29 39 -64
87 -78 106 -13 19 -30 42 -36 50 -7 9 -109 149 -227 311 -118 162 -219 300
-223 305 -5 6 -75 102 -158 215 -82 113 -153 210 -157 215 -5 6 -99 134 -209
285 -110 151 -240 330 -289 398 l-90 122 -1720 0 -1720 0 -2 819 -3 818 -25
-10z"/>
</g>
</svg>
